<?xml version="1.0" encoding="UTF-8"?>
<svg width="700pt" height="700pt" version="1.1" viewBox="0 0 700 700" xmlns="http://www.w3.org/2000/svg" xmlns:xlink="http://www.w3.org/1999/xlink">
 <defs>
  <symbol id="w" overflow="visible">
   <path d="m3.3281-0.20312c-0.16797 0.09375-0.34375 0.16406-0.53125 0.20312-0.1875 0.050781-0.38672 0.078125-0.59375 0.078125-0.59375 0-1.0703-0.16406-1.4219-0.5-0.35547-0.34375-0.53125-0.80469-0.53125-1.3906 0-0.57031 0.17578-1.0234 0.53125-1.3594 0.35156-0.34375 0.82812-0.51562 1.4219-0.51562 0.20703 0 0.40625 0.027344 0.59375 0.078125 0.1875 0.042969 0.36328 0.10547 0.53125 0.1875v0.75c-0.17969-0.11328-0.35156-0.19531-0.51562-0.25-0.16797-0.0625-0.34375-0.09375-0.53125-0.09375-0.33594 0-0.59375 0.10938-0.78125 0.32812-0.1875 0.21094-0.28125 0.5-0.28125 0.875s0.09375 0.67188 0.28125 0.89062c0.1875 0.21094 0.44531 0.3125 0.78125 0.3125 0.1875 0 0.36328-0.023437 0.53125-0.078125 0.16406-0.050781 0.33594-0.14062 0.51562-0.26562z"/>
  </symbol>
  <symbol id="c" overflow="visible">
   <path d="m2.4375-1.9844c-0.074219-0.03125-0.15234-0.050781-0.23438-0.0625-0.074219-0.019531-0.14844-0.03125-0.21875-0.03125-0.23047 0-0.40625 0.074219-0.53125 0.21875-0.11719 0.13672-0.17188 0.33984-0.17188 0.60938v1.25h-0.85938v-2.7188h0.85938v0.45312c0.11328-0.17578 0.24219-0.30469 0.39062-0.39062 0.14453-0.082031 0.31641-0.125 0.51562-0.125h0.09375c0.039062 0 0.09375 0.007812 0.15625 0.015625z"/>
  </symbol>
  <symbol id="a" overflow="visible">
   <path d="m3.125-1.3594v0.23438h-2.0312c0.019531 0.21094 0.09375 0.36719 0.21875 0.46875 0.13281 0.10547 0.3125 0.15625 0.53125 0.15625 0.1875 0 0.375-0.023438 0.5625-0.078125 0.19531-0.0625 0.39453-0.14453 0.59375-0.25v0.65625c-0.21094 0.085938-0.41797 0.14844-0.625 0.1875-0.19922 0.039062-0.40234 0.0625-0.60938 0.0625-0.49219 0-0.87109-0.125-1.1406-0.375-0.27344-0.25-0.40625-0.60156-0.40625-1.0625 0-0.4375 0.12891-0.78125 0.39062-1.0312 0.26953-0.25781 0.64062-0.39062 1.1094-0.39062 0.42578 0 0.76562 0.13281 1.0156 0.39062 0.25781 0.25 0.39062 0.59375 0.39062 1.0312zm-0.89062-0.29688c0-0.16406-0.046875-0.29688-0.14062-0.39062-0.09375-0.10156-0.21875-0.15625-0.375-0.15625-0.16797 0-0.30859 0.046875-0.42188 0.14062-0.10547 0.09375-0.16797 0.23047-0.1875 0.40625z"/>
  </symbol>
  <symbol id="j" overflow="visible">
   <path d="m1.6406-1.2188c-0.1875 0-0.32812 0.03125-0.42188 0.09375-0.085938 0.0625-0.125 0.15234-0.125 0.26562 0 0.11719 0.035156 0.20312 0.10938 0.26562 0.070313 0.0625 0.17188 0.09375 0.29688 0.09375 0.16406 0 0.30469-0.054688 0.42188-0.17188 0.11328-0.125 0.17188-0.27344 0.17188-0.45312v-0.09375zm1.3281-0.32812v1.5469h-0.875v-0.40625c-0.125 0.16797-0.26172 0.29297-0.40625 0.375-0.14844 0.070312-0.32422 0.10938-0.53125 0.10938-0.28125 0-0.51172-0.082031-0.6875-0.25-0.16797-0.16406-0.25-0.37891-0.25-0.64062 0-0.32031 0.10938-0.55469 0.32812-0.70312 0.21875-0.14453 0.5625-0.21875 1.0312-0.21875h0.51562v-0.078125c0-0.13281-0.058594-0.23438-0.17188-0.29688-0.10547-0.0625-0.27344-0.09375-0.5-0.09375-0.1875 0-0.36719 0.023437-0.53125 0.0625-0.15625 0.03125-0.30469 0.085937-0.4375 0.15625v-0.65625c0.1875-0.050781 0.375-0.085937 0.5625-0.10938 0.1875-0.019531 0.375-0.03125 0.5625-0.03125 0.48828 0 0.84375 0.10156 1.0625 0.29688 0.21875 0.1875 0.32812 0.5 0.32812 0.9375z"/>
  </symbol>
  <symbol id="b" overflow="visible">
   <path d="m1.3594-3.4844v0.76562h0.90625v0.625h-0.90625v1.1562c0 0.125 0.023437 0.21094 0.078125 0.25 0.050781 0.042969 0.14844 0.0625 0.29688 0.0625h0.45312v0.625h-0.75c-0.34375 0-0.58984-0.066406-0.73438-0.20312-0.13672-0.14453-0.20312-0.39062-0.20312-0.73438v-1.1562h-0.4375v-0.625h0.4375v-0.76562z"/>
  </symbol>
  <symbol id="i" overflow="visible">
   <path d="m2.2656-2.3125v-1.4688h0.875v3.7812h-0.875v-0.39062c-0.11719 0.15625-0.24609 0.27734-0.39062 0.35938-0.14844 0.070312-0.3125 0.10938-0.5 0.10938-0.33594 0-0.60938-0.13281-0.82812-0.40625-0.21875-0.26953-0.32812-0.61328-0.32812-1.0312 0-0.41406 0.10938-0.75391 0.32812-1.0156 0.21875-0.26953 0.49219-0.40625 0.82812-0.40625 0.1875 0 0.35156 0.039062 0.5 0.10938 0.14453 0.074219 0.27344 0.19531 0.39062 0.35938zm-0.57812 1.75c0.1875 0 0.32812-0.066406 0.42188-0.20312 0.10156-0.13281 0.15625-0.33203 0.15625-0.59375 0-0.25781-0.054687-0.45703-0.15625-0.59375-0.09375-0.13281-0.23438-0.20312-0.42188-0.20312-0.17969 0-0.32031 0.070312-0.42188 0.20312-0.09375 0.13672-0.14062 0.33594-0.14062 0.59375 0 0.26172 0.046875 0.46094 0.14062 0.59375 0.10156 0.13672 0.24219 0.20312 0.42188 0.20312z"/>
  </symbol>
  <symbol id="h" overflow="visible">
   <path d="m1.8594-0.5625c0.1875 0 0.32812-0.066406 0.42188-0.20312 0.10156-0.13281 0.15625-0.33203 0.15625-0.59375 0-0.25781-0.054688-0.45703-0.15625-0.59375-0.09375-0.13281-0.23438-0.20312-0.42188-0.20312s-0.33594 0.074219-0.4375 0.21875c-0.09375 0.13672-0.14062 0.32812-0.14062 0.57812 0 0.26172 0.046875 0.46094 0.14062 0.59375 0.10156 0.13672 0.25 0.20312 0.4375 0.20312zm-0.57812-1.75c0.125-0.16406 0.25781-0.28516 0.40625-0.35938 0.14453-0.070313 0.3125-0.10938 0.5-0.10938 0.33203 0 0.60156 0.13672 0.8125 0.40625 0.21875 0.26172 0.32812 0.60156 0.32812 1.0156 0 0.41797-0.10938 0.76172-0.32812 1.0312-0.21094 0.27344-0.48047 0.40625-0.8125 0.40625-0.1875 0-0.35547-0.039062-0.5-0.10938-0.14844-0.082031-0.28125-0.20312-0.40625-0.35938v0.39062h-0.85938v-3.7812h0.85938z"/>
  </symbol>
  <symbol id="g" overflow="visible">
   <path d="m0.0625-2.7188h0.85938l0.73438 1.8438 0.625-1.8438h0.875l-1.1562 2.9688c-0.11719 0.30078-0.25 0.51562-0.40625 0.64062-0.14844 0.125-0.34375 0.1875-0.59375 0.1875h-0.5v-0.57812h0.26562c0.14453 0 0.25-0.027344 0.3125-0.078125 0.070313-0.042969 0.12891-0.125 0.17188-0.25l0.015625-0.0625z"/>
  </symbol>
  <symbol id="f" overflow="visible">
   <path d="m1.3906-2.9219v2.2188h0.32812c0.38281 0 0.67578-0.09375 0.875-0.28125 0.20703-0.19531 0.3125-0.47266 0.3125-0.82812 0-0.36328-0.10547-0.64062-0.3125-0.82812-0.19922-0.1875-0.49219-0.28125-0.875-0.28125zm-0.9375-0.70312h0.98438c0.55078 0 0.96094 0.042969 1.2344 0.125 0.26953 0.074219 0.5 0.20312 0.6875 0.39062 0.17578 0.16797 0.30078 0.35938 0.375 0.57812 0.082031 0.21094 0.125 0.44922 0.125 0.71875 0 0.27344-0.042969 0.51562-0.125 0.73438-0.074219 0.21094-0.19922 0.39844-0.375 0.5625-0.1875 0.1875-0.42188 0.32422-0.70312 0.40625-0.27344 0.074219-0.67969 0.10938-1.2188 0.10938h-0.98438z"/>
  </symbol>
  <symbol id="v" overflow="visible">
   <path d="m2.6562-0.65625h-1.4688l-0.21875 0.65625h-0.9375l1.3281-3.625h1.125l1.3438 3.625h-0.95312zm-1.2344-0.67188h1l-0.5-1.4375z"/>
  </symbol>
  <symbol id="e" overflow="visible">
   <path d="m0.45312-3.625h1.0469l1.3125 2.4844v-2.4844h0.89062v3.625h-1.0469l-1.3125-2.4844v2.4844h-0.89062z"/>
  </symbol>
  <symbol id="u" overflow="visible">
   <path d="m0.45312-3.625h0.9375v3.625h-0.9375z"/>
  </symbol>
  <symbol id="t" overflow="visible">
   <path d="m0.45312-3.625h2.5312v0.70312h-1.5938v0.6875h1.4844v0.70312h-1.4844v0.82812h1.6406v0.70312h-2.5781z"/>
  </symbol>
  <symbol id="s" overflow="visible">
   <path d="m0.45312-3.625h0.9375v2.9219h1.6406v0.70312h-2.5781z"/>
  </symbol>
  <symbol id="r" overflow="visible">
   <path d="m2.2031-3.7812v0.57812h-0.48438c-0.11719 0-0.19922 0.023437-0.25 0.0625-0.054688 0.042969-0.078125 0.12109-0.078125 0.23438v0.1875h0.75v0.625h-0.75v2.0938h-0.85938v-2.0938h-0.4375v-0.625h0.4375v-0.1875c0-0.28906 0.078125-0.50781 0.23438-0.65625 0.16406-0.14453 0.42578-0.21875 0.78125-0.21875z"/>
  </symbol>
  <symbol id="d" overflow="visible">
   <path d="m1.7031-2.1562c-0.1875 0-0.33594 0.070312-0.4375 0.20312-0.09375 0.13672-0.14062 0.33594-0.14062 0.59375 0 0.26172 0.046875 0.46484 0.14062 0.60938 0.10156 0.13672 0.25 0.20312 0.4375 0.20312 0.19531 0 0.34375-0.066406 0.4375-0.20312 0.10156-0.14453 0.15625-0.34766 0.15625-0.60938 0-0.25781-0.054687-0.45703-0.15625-0.59375-0.09375-0.13281-0.24219-0.20312-0.4375-0.20312zm0-0.625c0.46875 0 0.83203 0.125 1.0938 0.375 0.26953 0.25 0.40625 0.60156 0.40625 1.0469 0 0.44922-0.13672 0.80469-0.40625 1.0625-0.26172 0.25-0.625 0.375-1.0938 0.375s-0.83594-0.125-1.0938-0.375c-0.26172-0.25781-0.39062-0.61328-0.39062-1.0625 0-0.44531 0.12891-0.79688 0.39062-1.0469 0.25781-0.25 0.625-0.375 1.0938-0.375z"/>
  </symbol>
  <symbol id="q" overflow="visible">
   <path d="m2.9375-2.2656c0.10156-0.16406 0.22656-0.28906 0.375-0.375 0.15625-0.09375 0.32812-0.14062 0.51562-0.14062 0.3125 0 0.54688 0.10156 0.70312 0.29688 0.16406 0.1875 0.25 0.46484 0.25 0.82812v1.6562h-0.875v-1.4219-0.0625c0.007812-0.019531 0.015625-0.050781 0.015625-0.09375 0-0.19531-0.03125-0.33594-0.09375-0.42188-0.054687-0.082031-0.14062-0.125-0.26562-0.125-0.16797 0-0.29688 0.070312-0.39062 0.20312-0.085937 0.13672-0.13281 0.33594-0.14062 0.59375v1.3281h-0.875v-1.4219c0-0.30078-0.027344-0.49219-0.078125-0.57812-0.054687-0.082031-0.14062-0.125-0.26562-0.125-0.16797 0-0.29688 0.070312-0.39062 0.20312-0.09375 0.13672-0.14062 0.32812-0.14062 0.57812v1.3438h-0.875v-2.7188h0.875v0.40625c0.11328-0.15625 0.23828-0.26953 0.375-0.34375 0.13281-0.082031 0.28516-0.125 0.45312-0.125 0.1875 0 0.35156 0.046875 0.5 0.14062 0.14453 0.085937 0.25391 0.21094 0.32812 0.375z"/>
  </symbol>
  <symbol id="p" overflow="visible">
   <path d="m3.1562-1.6562v1.6562h-0.875v-1.2656c0-0.23828-0.007812-0.39844-0.015625-0.48438-0.011719-0.09375-0.03125-0.16016-0.0625-0.20312-0.03125-0.050781-0.078125-0.09375-0.14062-0.125-0.054688-0.03125-0.11719-0.046875-0.1875-0.046875-0.1875 0-0.33594 0.074219-0.4375 0.21875-0.10547 0.13672-0.15625 0.32422-0.15625 0.5625v1.3438h-0.85938v-3.7812h0.85938v1.4688c0.13281-0.16406 0.27344-0.28516 0.42188-0.35938 0.14453-0.070313 0.30469-0.10938 0.48438-0.10938 0.3125 0 0.55078 0.10156 0.71875 0.29688 0.16406 0.1875 0.25 0.46484 0.25 0.82812z"/>
  </symbol>
  <symbol id="o" overflow="visible">
   <path d="m0.39062-1.0625v-1.6562h0.875v0.26562c0 0.15625-0.007813 0.34375-0.015625 0.5625v0.4375c0 0.21875 0.003906 0.38281 0.015625 0.48438 0.019531 0.09375 0.039063 0.16406 0.0625 0.20312 0.039063 0.0625 0.085937 0.10938 0.14062 0.14062 0.0625 0.023438 0.12891 0.03125 0.20312 0.03125 0.17578 0 0.31641-0.066406 0.42188-0.20312 0.10156-0.13281 0.15625-0.32812 0.15625-0.57812v-1.3438h0.875v2.7188h-0.875v-0.39062c-0.125 0.15625-0.26562 0.27734-0.42188 0.35938-0.14844 0.070312-0.30859 0.10938-0.48438 0.10938-0.3125 0-0.55469-0.09375-0.71875-0.28125-0.15625-0.19531-0.23438-0.48438-0.23438-0.85938z"/>
  </symbol>
  <symbol id="n" overflow="visible">
   <path d="m3.1562-1.6562v1.6562h-0.875v-1.2656c0-0.23828-0.007812-0.39844-0.015625-0.48438-0.011719-0.09375-0.03125-0.16016-0.0625-0.20312-0.03125-0.050781-0.078125-0.09375-0.14062-0.125-0.054688-0.03125-0.11719-0.046875-0.1875-0.046875-0.1875 0-0.33594 0.074219-0.4375 0.21875-0.10547 0.13672-0.15625 0.32422-0.15625 0.5625v1.3438h-0.85938v-2.7188h0.85938v0.40625c0.13281-0.16406 0.27344-0.28516 0.42188-0.35938 0.14453-0.070313 0.30469-0.10938 0.48438-0.10938 0.3125 0 0.55078 0.10156 0.71875 0.29688 0.16406 0.1875 0.25 0.46484 0.25 0.82812z"/>
  </symbol>
  <symbol id="m" overflow="visible">
   <path d="m0.45312-3.625h1.5469c0.46875 0 0.82031 0.10547 1.0625 0.3125 0.25 0.19922 0.375 0.49219 0.375 0.875 0 0.375-0.125 0.66797-0.375 0.875-0.24219 0.21094-0.59375 0.3125-1.0625 0.3125h-0.60938v1.25h-0.9375zm0.9375 0.67188v1.0156h0.51562c0.17578 0 0.3125-0.039062 0.40625-0.125 0.10156-0.09375 0.15625-0.21875 0.15625-0.375 0-0.16406-0.054688-0.28906-0.15625-0.375-0.09375-0.09375-0.23047-0.14062-0.40625-0.14062z"/>
  </symbol>
  <symbol id="l" overflow="visible">
   <path d="m0.42188-2.7188h0.85938v2.6719c0 0.36328-0.089844 0.64062-0.26562 0.82812-0.16797 0.19531-0.41797 0.29688-0.75 0.29688h-0.4375v-0.57812h0.15625c0.16406 0 0.28125-0.039062 0.34375-0.10938 0.0625-0.074219 0.09375-0.21875 0.09375-0.4375zm0-1.0625h0.85938v0.71875h-0.85938z"/>
  </symbol>
  <symbol id="k" overflow="visible">
   <path d="m2.6094-2.625v0.70312c-0.11719-0.082031-0.23438-0.14062-0.35938-0.17188-0.11719-0.039062-0.23438-0.0625-0.35938-0.0625-0.24219 0-0.42969 0.074219-0.5625 0.21875-0.13672 0.13672-0.20312 0.32812-0.20312 0.57812 0 0.26172 0.066406 0.46484 0.20312 0.60938 0.13281 0.13672 0.32031 0.20312 0.5625 0.20312 0.13281 0 0.25781-0.019531 0.375-0.0625 0.125-0.039063 0.23828-0.10156 0.34375-0.1875v0.71875c-0.13672 0.054688-0.27734 0.085938-0.42188 0.10938-0.13672 0.03125-0.27344 0.046875-0.40625 0.046875-0.49219 0-0.875-0.125-1.1562-0.375-0.27344-0.25781-0.40625-0.61328-0.40625-1.0625 0-0.44531 0.13281-0.79688 0.40625-1.0469 0.28125-0.25 0.66406-0.375 1.1562-0.375 0.13281 0 0.26953 0.015625 0.40625 0.046875 0.14453 0.023437 0.28516 0.058594 0.42188 0.10938z"/>
  </symbol>
 </defs>
 <g>
  <path d="m350 0c154.89 0 280 125.11 280 280s-125.11 280-280 280-280-125.11-280-280 125.11-280 280-280zm25.816 42.695c-84.398 46.668-141.98 138.02-141.98 242.27 0 98.297 50.637 184.68 128.09 234.33-135.04 5.957-249.22-103.26-249.22-239.29 0-141.98 123.12-251.21 263.12-237.3z" fill-rule="evenodd"/>
  <use x="70" y="574.894531" xlink:href="#w"/>
  <use x="73.644531" y="574.894531" xlink:href="#c"/>
  <use x="76.089844" y="574.894531" xlink:href="#a"/>
  <use x="79.457031" y="574.894531" xlink:href="#j"/>
  <use x="82.808594" y="574.894531" xlink:href="#b"/>
  <use x="85.183594" y="574.894531" xlink:href="#a"/>
  <use x="88.550781" y="574.894531" xlink:href="#i"/>
  <use x="93.832031" y="574.894531" xlink:href="#h"/>
  <use x="97.386719" y="574.894531" xlink:href="#g"/>
  <use x="102.347656" y="574.894531" xlink:href="#f"/>
  <use x="106.46875" y="574.894531" xlink:href="#v"/>
  <use x="110.3125" y="574.894531" xlink:href="#e"/>
  <use x="114.46875" y="574.894531" xlink:href="#u"/>
  <use x="116.316406" y="574.894531" xlink:href="#t"/>
  <use x="119.707031" y="574.894531" xlink:href="#s"/>
  <use x="70" y="579.859375" xlink:href="#r"/>
  <use x="72.160156" y="579.859375" xlink:href="#c"/>
  <use x="74.609375" y="579.859375" xlink:href="#d"/>
  <use x="78.019531" y="579.859375" xlink:href="#q"/>
  <use x="84.921875" y="579.859375" xlink:href="#b"/>
  <use x="87.292969" y="579.859375" xlink:href="#p"/>
  <use x="90.828125" y="579.859375" xlink:href="#a"/>
  <use x="95.921875" y="579.859375" xlink:href="#e"/>
  <use x="100.078125" y="579.859375" xlink:href="#d"/>
  <use x="103.488281" y="579.859375" xlink:href="#o"/>
  <use x="107.023438" y="579.859375" xlink:href="#n"/>
  <use x="112.285156" y="579.859375" xlink:href="#m"/>
  <use x="115.925781" y="579.859375" xlink:href="#c"/>
  <use x="118.371094" y="579.859375" xlink:href="#d"/>
  <use x="121.785156" y="579.859375" xlink:href="#l"/>
  <use x="123.484375" y="579.859375" xlink:href="#a"/>
  <use x="126.851562" y="579.859375" xlink:href="#k"/>
  <use x="129.796875" y="579.859375" xlink:href="#b"/>
 </g>
</svg>
